# xmcd
#
# Track frame offsets:
# 150
# 16308
# 33657
# 52775
# 74856
# 88306
# 101292
# 120848
# 133091
# 154289
# 177996
# 191845
#
# Disc length: 2836 seconds
#
# Revision: 1
# Processed by: cddbd v1.4PL0 Copyright (c) Steve Scherf et al.
# Submitted via: inCDius 2.0b9
#
DISCID=a50b120c
DTITLE=Ray Benson - Beyond Time
DYEAR=2003
DGENRE=Country
TTITLE0=Sorry
TTITLE1=Annabelle
TTITLE2=Mary Anne
TTITLE3=Hands of Time
TTITLE4=Isn't It Strange
TTITLE5=Let's Get Lost
TTITLE6=Haven't Gotten To You Yet
TTITLE7=Leave That Cowboy Alone
TTITLE8=Small Town
TTITLE9=El Paso
TTITLE10=Ain't Chet Yet
TTITLE11=Clearin' Up To Be Cloudy
EXTD=Audium Records\n1709 18th Ave. South\nNashville, TN.  37212
EXTT0=
EXTT1=
EXTT2=Featuring Jimmie Vaughn
EXTT3=Featuring Stanley Jordan
EXTT4=
EXTT5=
EXTT6=
EXTT7=Featuring Dolly Parton
EXTT8=
EXTT9=Featuring Flaco Jimenez
EXTT10=
EXTT11=Featuring Delbert McClinton and Jimmie Vaughn
PLAYORDER=
